# xmcd
#
# Track frame offsets:
#	150
#	22350
#	41400
#	62187
#	77880
#	97100
#	120227
#	134912
#	153712
#	170050
#	180820
#	196052
#	212690
#	233257
#	253405
#	275637
#	295017
#
# Disc length: 4193 seconds
#
# Revision: 6
# Processed by: cddbd v1.5.2PL0 Copyright (c) Steve Scherf et al.
# Submitted via: dBpowerAMP V4.0
#
DISCID=fa105f11
DTITLE=Mystikal - Unpredictable
DYEAR=1997
DGENRE=Rap
TTITLE0=Born 2 Be A Soldier featuring Master P and Silkk The Shocker
TTITLE1=Murder 2
TTITLE2=13 Years
TTITLE3=Unpredictable
TTITLE4=Ain't No Limit featuring Silkk The Shocker
TTITLE5=Ghetto Child featuring Master P and Silkk The Shocker
TTITLE6=Did I Do It
TTITLE7=Here We Go featuring B-Legit,E-40 and Master P
TTITLE8=We Got The Clout featuring Mia X
TTITLE9=Still Smokin'
TTITLE10=U Can't Handle This
TTITLE11=The Man Right Chea
TTITLE12=Dick On The Track
TTITLE13=Sleepin' With Me featuring O'Dell
TTITLE14=It Yearns
TTITLE15=Gangstas featuring Snoop Doggy Dogg and Master P
TTITLE16=Shine
EXTD=
EXTT0=
EXTT1=
EXTT2=
EXTT3=
EXTT4=
EXTT5=
EXTT6=
EXTT7=
EXTT8=
EXTT9=
EXTT10=
EXTT11=
EXTT12=
EXTT13=
EXTT14=
EXTT15=
EXTT16=
PLAYORDER=
